<svg width="168" height="43" xmlns="http://www.w3.org/2000/svg" fill="none">

 <g>
  <title>Layer 1</title>
  <path d="m8.63281,8l7.23389,6.1803c0.4295,0.3669 0.6771,0.9053 0.6771,1.4724l0,4.6577l-7.23401,-6.1802c-0.42946,-0.3669 -0.67698,-0.9054 -0.67698,-1.4725l0,-4.6577z" fill="#5044E5" id="svg_2"/>
  <path d="m8.63281,35.9999l7.23389,-6.1803c0.4295,-0.3669 0.6771,-0.9053 0.6771,-1.4724l0,-4.6577l-7.23401,6.1802c-0.42946,0.3669 -0.67698,0.9053 -0.67698,1.4724l0,4.6578z" fill="#5044E5" id="svg_3"/>
  <path d="m0,14.5166l7.13558,6.0622c0.34594,0.2939 0.784,0.4551 1.2367,0.4551l5.75452,0l-7.11799,-6.0608c-0.3462,-0.2947 -0.78494,-0.4565 -1.23835,-0.4565l-5.77046,0z" fill="#5044E5" id="svg_4"/>
  <path d="m0,29.4822l7.09169,-6.0587c0.34657,-0.2961 0.78624,-0.4587 1.24076,-0.4587l5.81155,0l-7.13561,6.0622c-0.34597,0.2939 -0.78405,0.4552 -1.23673,0.4552l-5.77166,0z" fill="#5044E5" id="svg_5"/>
  <path d="m26.3719,8l-7.234,6.1803c-0.4294,0.3669 -0.677,0.9053 -0.677,1.4724l0,4.6577l7.234,-6.1802c0.4294,-0.3669 0.677,-0.9054 0.677,-1.4725l0,-4.6577z" fill="#5044E5" id="svg_6"/>
  <path d="m26.3719,35.9999l-7.234,-6.1803c-0.4294,-0.3669 -0.677,-0.9053 -0.677,-1.4724l0,-4.6577l7.234,6.1802c0.4294,0.3669 0.677,0.9053 0.677,1.4724l0,4.6578z" fill="#5044E5" id="svg_7"/>
  <path d="m35.0019,14.5166l-7.1356,6.0622c-0.3459,0.2939 -0.7841,0.4551 -1.2367,0.4551l-5.7546,0l7.1181,-6.0608c0.3461,-0.2947 0.7849,-0.4565 1.2383,-0.4565l5.7705,0z" fill="#5044E5" id="svg_8"/>
  <path d="m34.9994,29.4822l-7.0917,-6.0587c-0.3465,-0.2961 -0.7863,-0.4587 -1.2408,-0.4587l-5.8114,0l7.1355,6.0622c0.346,0.2939 0.784,0.4552 1.2367,0.4552l5.7717,0z" fill="#5044E5" id="svg_9"/>
  <text font-weight="bold" xml:space="preserve" text-anchor="start" font-family="Noto Sans JP" font-size="24" stroke-width="0" id="svg_13" y="28" x="39.50195" fill="#5540e5">Common.ai</text>
 </g>
</svg>